<?xml version="1.0" encoding="UTF-8"?>
<svg version="1.1" xmlns="http://www.w3.org/2000/svg" width="512" height="512">
<path d="M0 0 C2.75 2.3125 2.75 2.3125 5 5 C5.44214844 5.5259375 5.88429688 6.051875 6.33984375 6.59375 C11.12001326 12.69019808 12.75902908 19.2832044 12 27 C10.8161527 31.38538216 9.44980402 35.69589432 8 40 C8.86109375 40.10183594 9.7221875 40.20367187 10.609375 40.30859375 C20.63162638 42.35230169 29.49501675 49.33185559 37 56 C37.63550781 56.56460938 38.27101562 57.12921875 38.92578125 57.7109375 C52.08979124 70.14523519 60.24863026 87.78232769 61.54760742 105.74438477 C61.6335466 106.91566422 61.71948578 108.08694366 61.80802917 109.29371643 C61.87137955 110.18679001 61.93472992 111.07986359 62 112 C62.63272994 111.99848112 63.26545989 111.99696224 63.91736346 111.99539733 C101.43660082 111.90584177 138.95582234 111.83723192 176.47514473 111.79573868 C180.98237206 111.79073599 185.48959917 111.78555869 189.99682617 111.78027344 C190.8941158 111.7792242 191.79140544 111.77817495 192.71588566 111.77709392 C207.23553983 111.75969924 221.75513052 111.72816672 236.27474705 111.69138882 C251.17852976 111.6539533 266.08227926 111.63175863 280.98610705 111.62364602 C290.1790318 111.61816366 299.37177707 111.60086201 308.56464656 111.56833413 C314.87264822 111.547154 321.18055739 111.54080786 327.48859201 111.54599449 C331.12543131 111.54855085 334.76195746 111.54469386 338.39874077 111.5231781 C342.34930029 111.49997776 346.29945626 111.50808043 350.25007629 111.51898193 C351.38921048 111.50733057 352.52834466 111.4956792 353.70199805 111.48367476 C365.66016372 111.57264789 375.16022653 115.25544379 383.68359375 123.66015625 C389.85457554 130.41591935 393.12024494 137.59161062 393.13142776 146.74572277 C393.13526891 147.92552438 393.13911005 149.10532599 393.1430676 150.32087916 C393.14220112 151.61822924 393.14133463 152.91557932 393.14044189 154.25224304 C393.14302574 155.64346439 393.14603895 157.034685 393.1494453 158.42590457 C393.15751641 162.25322733 393.15930493 166.08053133 393.16004276 169.90786159 C393.16189314 174.03411479 393.16944042 178.16035826 393.17617798 182.28660583 C393.18976288 191.31147749 393.19578634 200.33634471 393.20018864 209.36122489 C393.20295094 214.99634441 393.20718829 220.63146222 393.21169281 226.26658058 C393.22388596 241.86818554 393.234185 257.46978912 393.2375679 273.07139874 C393.23778747 274.0700468 393.23800703 275.06869486 393.23823325 276.09760498 C393.23845153 277.09864586 393.23866981 278.09968675 393.2388947 279.13106221 C393.23933817 281.15955905 393.23978473 283.18805589 393.24023438 285.21655273 C393.2404558 286.22275773 393.24067723 287.22896272 393.24090537 288.26565877 C393.24485295 304.56792477 393.26230554 320.87014605 393.2855939 337.17239477 C393.30931001 353.90918032 393.32176988 370.64594342 393.32293582 387.38274604 C393.32385246 396.78001166 393.32960205 406.17721904 393.34775543 415.57446861 C393.36315996 423.5769771 393.36827482 431.57940933 393.36001733 439.58192983 C393.356112 443.66404219 393.35703465 447.74600103 393.37107468 451.82809448 C393.38382067 455.56820024 393.38261008 459.30803722 393.37048396 463.04814265 C393.36760462 465.03557378 393.3794575 467.02300958 393.39190602 469.01040381 C393.32504728 481.1126334 390.6400926 489.26367418 382.11328125 497.9140625 C374.8930042 504.58111596 367.81131665 508.11788993 357.94472313 508.13422108 C356.69587031 508.13867892 355.44701749 508.14313676 354.16032064 508.14772969 C352.77195 508.1476404 351.38357936 508.14745055 349.99520874 508.14717102 C348.52220393 508.15047059 347.04920002 508.15419635 345.57619727 508.1583125 C341.522776 508.16833003 337.46936955 508.1720489 333.41593766 508.17470181 C329.046308 508.17860559 324.67669005 508.18818387 320.30706787 508.19691467 C309.75168276 508.21667687 299.19629668 508.22674492 288.64089769 508.23564246 C283.67017043 508.24002571 278.69944423 508.24539242 273.7287178 508.25063133 C257.20494241 508.26764326 240.68116768 508.28213751 224.15738487 508.28938007 C219.86940892 508.29128997 215.58143297 508.2932103 211.29345703 508.29516602 C209.69482456 508.29589163 209.69482456 508.29589163 208.06389649 508.2966319 C190.7987811 508.30493247 173.533735 508.33027002 156.26864986 508.36274669 C138.54309903 508.39581771 120.8175834 508.41382887 103.09200156 508.41702431 C93.13968397 508.41918935 83.18746742 508.42793719 73.2351799 508.45348549 C64.7594782 508.47519303 56.28390207 508.48324262 47.80817573 508.47351871 C43.48489202 508.46897419 39.1618674 508.47086901 34.83861923 508.49028015 C30.87696914 508.50791386 26.91576711 508.50691263 22.95411225 508.49138286 C21.52471738 508.48900709 20.09529147 508.49332881 18.66594402 508.50521151 C5.29182157 508.60946457 -3.81551016 505.52663486 -13.65234375 496.48046875 C-24.17291482 485.47803946 -23.72427328 471.91936027 -23.65942383 457.71777344 C-23.66788742 455.5780901 -23.67853627 453.43841447 -23.69119263 451.29875183 C-23.71923256 445.52061272 -23.7168861 439.74284621 -23.70889878 433.96465969 C-23.70576496 427.91480014 -23.73083373 421.86505744 -23.75285339 415.81524658 C-23.79024539 404.37272593 -23.80243853 392.93032411 -23.8054778 381.48774838 C-23.81017387 368.45501283 -23.84311485 355.42239593 -23.87837565 342.38971281 C-23.95024549 315.59315623 -23.98681662 288.7966452 -24 262 C-25.23622353 261.70017212 -25.23622353 261.70017212 -26.49742126 261.39428711 C-27.57842606 261.1288208 -28.65943085 260.86335449 -29.77319336 260.58984375 C-30.84484238 260.3280835 -31.91649139 260.06632324 -33.02061462 259.79663086 C-45.92731864 256.34562422 -56.25656264 247.16569119 -63.4375 236.125 C-66.659051 230.31687037 -70 222.73182243 -70 216 C-70.82612793 216.02094727 -71.65225586 216.04189453 -72.50341797 216.06347656 C-75.61584221 216.13230274 -78.7278742 216.18211242 -81.84082031 216.21972656 C-83.83164478 216.24935477 -85.82211708 216.30022326 -87.8125 216.3515625 C-97.62303213 216.45065878 -105.48897548 215.44229433 -112.9375 208.6875 C-118.85478413 202.04451121 -119.6298937 196.28041531 -119.40625 187.51171875 C-118.57017478 180.28449164 -115.74715515 175.03899528 -110.0625 170.5 C-104.72522105 166.95516558 -100.37298393 165.91173152 -94 166 C-94.00888245 165.21898422 -94.01776489 164.43796844 -94.0269165 163.63328552 C-94.10767971 156.20633993 -94.16827357 148.77961275 -94.20724869 141.35233974 C-94.22796108 137.53556238 -94.2559714 133.71915336 -94.30175781 129.90258789 C-94.34580984 126.20668581 -94.36925932 122.51113382 -94.37950897 118.81498909 C-94.38679567 117.41783207 -94.401018 116.02069018 -94.42292023 114.62368584 C-94.61709969 101.70251615 -92.46528234 89.44122442 -86.4375 77.875 C-86.10089355 77.21886719 -85.76428711 76.56273438 -85.41748047 75.88671875 C-76.07976689 58.51344689 -59.71870281 45.11957592 -41 39 C-41.495 37.989375 -41.99 36.97875 -42.5 35.9375 C-45.44896513 27.95544534 -45.52245355 18.28271831 -42 10.5 C-38.46984194 4.50670906 -32.88444559 -1.11793381 -26.23828125 -3.5625 C-17.26553497 -5.31633522 -7.76172023 -5.18577814 0 0 Z M-27.3125 17.75 C-28.37487356 21.22685893 -28.65638537 24.44457927 -28 28 C-25.59702886 31.93213459 -23.80477144 33.62742063 -19.625 35.5625 C-15.06909747 36.1123503 -12.93995029 35.30449923 -9 33 C-5.52664833 29.61805232 -4.09945424 26.87325783 -4 22 C-5.66604962 17.3720844 -7.69610328 14.43263728 -12 12 C-18.81145544 10.78632249 -23.07324337 12.09765783 -27.3125 17.75 Z " fill="#FEFDFE" transform="translate(119,4)"/>
<path d="M0 0 C2.75 2.3125 2.75 2.3125 5 5 C5.44214844 5.5259375 5.88429688 6.051875 6.33984375 6.59375 C11.12001326 12.69019808 12.75902908 19.2832044 12 27 C10.8161527 31.38538216 9.44980402 35.69589432 8 40 C8.86109375 40.10183594 9.7221875 40.20367187 10.609375 40.30859375 C20.63162638 42.35230169 29.49501675 49.33185559 37 56 C37.63550781 56.56460938 38.27101562 57.12921875 38.92578125 57.7109375 C52.08979124 70.14523519 60.24863026 87.78232769 61.54760742 105.74438477 C61.6335466 106.91566422 61.71948578 108.08694366 61.80802917 109.29371643 C61.87137955 110.18679001 61.93472992 111.07986359 62 112 C62.63272994 111.99848112 63.26545989 111.99696224 63.91736346 111.99539733 C101.43660082 111.90584177 138.95582234 111.83723192 176.47514473 111.79573868 C180.98237206 111.79073599 185.48959917 111.78555869 189.99682617 111.78027344 C190.8941158 111.7792242 191.79140544 111.77817495 192.71588566 111.77709392 C207.23553983 111.75969924 221.75513052 111.72816672 236.27474705 111.69138882 C251.17852976 111.6539533 266.08227926 111.63175863 280.98610705 111.62364602 C290.1790318 111.61816366 299.37177707 111.60086201 308.56464656 111.56833413 C314.87264822 111.547154 321.18055739 111.54080786 327.48859201 111.54599449 C331.12543131 111.54855085 334.76195746 111.54469386 338.39874077 111.5231781 C342.34930029 111.49997776 346.29945626 111.50808043 350.25007629 111.51898193 C351.38921048 111.50733057 352.52834466 111.4956792 353.70199805 111.48367476 C365.66016372 111.57264789 375.16022653 115.25544379 383.68359375 123.66015625 C389.85457554 130.41591935 393.12024494 137.59161062 393.13142776 146.74572277 C393.13526891 147.92552438 393.13911005 149.10532599 393.1430676 150.32087916 C393.14220112 151.61822924 393.14133463 152.91557932 393.14044189 154.25224304 C393.14302574 155.64346439 393.14603895 157.034685 393.1494453 158.42590457 C393.15751641 162.25322733 393.15930493 166.08053133 393.16004276 169.90786159 C393.16189314 174.03411479 393.16944042 178.16035826 393.17617798 182.28660583 C393.18976288 191.31147749 393.19578634 200.33634471 393.20018864 209.36122489 C393.20295094 214.99634441 393.20718829 220.63146222 393.21169281 226.26658058 C393.22388596 241.86818554 393.234185 257.46978912 393.2375679 273.07139874 C393.23778747 274.0700468 393.23800703 275.06869486 393.23823325 276.09760498 C393.23845153 277.09864586 393.23866981 278.09968675 393.2388947 279.13106221 C393.23933817 281.15955905 393.23978473 283.18805589 393.24023438 285.21655273 C393.2404558 286.22275773 393.24067723 287.22896272 393.24090537 288.26565877 C393.24485295 304.56792477 393.26230554 320.87014605 393.2855939 337.17239477 C393.30931001 353.90918032 393.32176988 370.64594342 393.32293582 387.38274604 C393.32385246 396.78001166 393.32960205 406.17721904 393.34775543 415.57446861 C393.36315996 423.5769771 393.36827482 431.57940933 393.36001733 439.58192983 C393.356112 443.66404219 393.35703465 447.74600103 393.37107468 451.82809448 C393.38382067 455.56820024 393.38261008 459.30803722 393.37048396 463.04814265 C393.36760462 465.03557378 393.3794575 467.02300958 393.39190602 469.01040381 C393.32504728 481.1126334 390.6400926 489.26367418 382.11328125 497.9140625 C374.8930042 504.58111596 367.81131665 508.11788993 357.94472313 508.13422108 C356.69587031 508.13867892 355.44701749 508.14313676 354.16032064 508.14772969 C352.77195 508.1476404 351.38357936 508.14745055 349.99520874 508.14717102 C348.52220393 508.15047059 347.04920002 508.15419635 345.57619727 508.1583125 C341.522776 508.16833003 337.46936955 508.1720489 333.41593766 508.17470181 C329.046308 508.17860559 324.67669005 508.18818387 320.30706787 508.19691467 C309.75168276 508.21667687 299.19629668 508.22674492 288.64089769 508.23564246 C283.67017043 508.24002571 278.69944423 508.24539242 273.7287178 508.25063133 C257.20494241 508.26764326 240.68116768 508.28213751 224.15738487 508.28938007 C219.86940892 508.29128997 215.58143297 508.2932103 211.29345703 508.29516602 C209.69482456 508.29589163 209.69482456 508.29589163 208.06389649 508.2966319 C190.7987811 508.30493247 173.533735 508.33027002 156.26864986 508.36274669 C138.54309903 508.39581771 120.8175834 508.41382887 103.09200156 508.41702431 C93.13968397 508.41918935 83.18746742 508.42793719 73.2351799 508.45348549 C64.7594782 508.47519303 56.28390207 508.48324262 47.80817573 508.47351871 C43.48489202 508.46897419 39.1618674 508.47086901 34.83861923 508.49028015 C30.87696914 508.50791386 26.91576711 508.50691263 22.95411225 508.49138286 C21.52471738 508.48900709 20.09529147 508.49332881 18.66594402 508.50521151 C5.29182157 508.60946457 -3.81551016 505.52663486 -13.65234375 496.48046875 C-24.17291482 485.47803946 -23.72427328 471.91936027 -23.65942383 457.71777344 C-23.66788742 455.5780901 -23.67853627 453.43841447 -23.69119263 451.29875183 C-23.71923256 445.52061272 -23.7168861 439.74284621 -23.70889878 433.96465969 C-23.70576496 427.91480014 -23.73083373 421.86505744 -23.75285339 415.81524658 C-23.79024539 404.37272593 -23.80243853 392.93032411 -23.8054778 381.48774838 C-23.81017387 368.45501283 -23.84311485 355.42239593 -23.87837565 342.38971281 C-23.95024549 315.59315623 -23.98681662 288.7966452 -24 262 C-25.23622353 261.70017212 -25.23622353 261.70017212 -26.49742126 261.39428711 C-27.57842606 261.1288208 -28.65943085 260.86335449 -29.77319336 260.58984375 C-30.84484238 260.3280835 -31.91649139 260.06632324 -33.02061462 259.79663086 C-45.92731864 256.34562422 -56.25656264 247.16569119 -63.4375 236.125 C-66.659051 230.31687037 -70 222.73182243 -70 216 C-70.82612793 216.02094727 -71.65225586 216.04189453 -72.50341797 216.06347656 C-75.61584221 216.13230274 -78.7278742 216.18211242 -81.84082031 216.21972656 C-83.83164478 216.24935477 -85.82211708 216.30022326 -87.8125 216.3515625 C-97.62303213 216.45065878 -105.48897548 215.44229433 -112.9375 208.6875 C-118.85478413 202.04451121 -119.6298937 196.28041531 -119.40625 187.51171875 C-118.57017478 180.28449164 -115.74715515 175.03899528 -110.0625 170.5 C-104.72522105 166.95516558 -100.37298393 165.91173152 -94 166 C-94.00888245 165.21898422 -94.01776489 164.43796844 -94.0269165 163.63328552 C-94.10767971 156.20633993 -94.16827357 148.77961275 -94.20724869 141.35233974 C-94.22796108 137.53556238 -94.2559714 133.71915336 -94.30175781 129.90258789 C-94.34580984 126.20668581 -94.36925932 122.51113382 -94.37950897 118.81498909 C-94.38679567 117.41783207 -94.401018 116.02069018 -94.42292023 114.62368584 C-94.61709969 101.70251615 -92.46528234 89.44122442 -86.4375 77.875 C-86.10089355 77.21886719 -85.76428711 76.56273438 -85.41748047 75.88671875 C-76.07976689 58.51344689 -59.71870281 45.11957592 -41 39 C-41.495 37.989375 -41.99 36.97875 -42.5 35.9375 C-45.44896513 27.95544534 -45.52245355 18.28271831 -42 10.5 C-38.46984194 4.50670906 -32.88444559 -1.11793381 -26.23828125 -3.5625 C-17.26553497 -5.31633522 -7.76172023 -5.18577814 0 0 Z M-27.3125 17.75 C-28.37487356 21.22685893 -28.65638537 24.44457927 -28 28 C-25.59702886 31.93213459 -23.80477144 33.62742063 -19.625 35.5625 C-15.06909747 36.1123503 -12.93995029 35.30449923 -9 33 C-5.52664833 29.61805232 -4.09945424 26.87325783 -4 22 C-5.66604962 17.3720844 -7.69610328 14.43263728 -12 12 C-18.81145544 10.78632249 -23.07324337 12.09765783 -27.3125 17.75 Z M61 127 C61 139.87 61 152.74 61 166 C65.29 167.32 69.58 168.64 74 170 C79.43551634 173.67942644 83.21621989 177.56789877 85 184 C86.18336709 192.71895938 85.08522323 199.74340047 80 207 C74.54597324 212.59755378 68.14361481 214.35386691 60.53515625 214.51171875 C59.51789711 214.53864555 59.51789711 214.53864555 58.48008728 214.56611633 C56.34095243 214.61974943 54.20203442 214.65396044 52.0625 214.6875 C50.60088157 214.72071492 49.1392916 214.75520837 47.67773438 214.79101562 C44.1186979 214.87544603 40.55958488 214.9424797 37 215 C36.67805664 216.04873291 36.35611328 217.09746582 36.02441406 218.17797852 C30.91235949 234.62059584 23.36503013 246.49513121 8 255 C2.78167526 257.6588607 -2.36112631 259.4074568 -8 261 C-8.09344344 288.89431939 -8.16397936 316.78861531 -8.20724869 344.68305969 C-8.22787343 357.63495109 -8.25599255 370.58674524 -8.30175781 383.53857422 C-8.34162803 394.82745237 -8.36743345 406.11626008 -8.37635398 417.40520668 C-8.38156836 423.38257186 -8.39382261 429.35973554 -8.42292023 435.33703613 C-8.450092 440.96437514 -8.4584413 446.59142983 -8.45243073 452.2188282 C-8.45353016 454.28278206 -8.46147337 456.34674554 -8.4768219 458.41064262 C-8.49677716 461.23268664 -8.49191883 464.05366275 -8.48101807 466.87573242 C-8.49849512 468.09560915 -8.49849512 468.09560915 -8.51632524 469.34012985 C-8.4467246 476.02437599 -6.47132209 481.22941625 -2 486.2421875 C-1.01 487.05042969 -1.01 487.05042969 0 487.875 C0.66 488.42929687 1.32 488.98359375 2 489.5546875 C6.07331762 492.49829594 8.90398606 493.25056145 13.96436596 493.25726891 C15.80721968 493.26694224 15.80721968 493.26694224 17.68730277 493.276811 C19.05278132 493.27386864 20.41825947 493.27073319 21.78373718 493.26742554 C23.23270731 493.27116114 24.68167542 493.2757623 26.13064033 493.28115618 C30.11760443 493.29341318 34.10448479 493.29312254 38.09146345 493.29076743 C42.38950549 493.29035994 46.68752045 493.30139208 50.98554993 493.31088257 C59.40890304 493.32750915 67.83222816 493.33299289 76.2555963 493.33410732 C83.10277782 493.33505717 89.94995009 493.33916428 96.79712868 493.34550858 C116.20671981 493.36312678 135.6162888 493.37234673 155.02588799 493.37084763 C156.07268431 493.37076772 157.11948063 493.3706878 158.19799805 493.37060547 C159.77010845 493.37048283 159.77010845 493.37048283 161.37397865 493.37035771 C178.3552474 493.36954501 195.3364274 493.38867716 212.31767049 493.4168822 C229.75054822 493.44560901 247.18338267 493.45942256 264.61628467 493.45769465 C274.40480311 493.4570306 284.19322856 493.46252929 293.98172569 493.48405075 C302.31729404 493.50226003 310.65272728 493.50661209 318.9883069 493.4930319 C323.2405788 493.48650051 327.49259146 493.48639107 331.74483871 493.5037384 C335.64044901 493.51946714 339.5355945 493.51660779 343.43119345 493.49917014 C344.83768708 493.49609974 346.24421537 493.49973424 347.65066811 493.51089029 C356.73920679 493.57818482 364.10078565 492.96680961 371.33984375 487.10546875 C372.13068359 486.15607422 372.13068359 486.15607422 372.9375 485.1875 C373.48277344 484.56230469 374.02804687 483.93710937 374.58984375 483.29296875 C378.87665809 476.32244239 378.28941401 468.65172528 378.27415466 460.73539734 C378.27861077 459.37942056 378.28392605 458.02344639 378.29002339 456.667476 C378.30416875 452.95145959 378.30586734 449.23552697 378.30542648 445.5194875 C378.30707772 441.50777601 378.32014982 437.49609872 378.33161926 433.48440552 C378.35444305 424.71789972 378.36238679 415.95141817 378.36744571 407.18488669 C378.37070524 401.70904223 378.37722921 396.23320477 378.3844471 390.75736427 C378.40400824 375.58970587 378.42041575 360.42205397 378.42332363 345.25438213 C378.42360499 343.79925818 378.42360499 343.79925818 378.42389202 342.31473779 C378.42425827 340.34824677 378.42462197 338.38175576 378.42498314 336.41526475 C378.42516595 335.43912826 378.42534876 334.46299177 378.42553711 333.45727539 C378.42571766 332.47994475 378.42589821 331.5026141 378.42608423 330.49566738 C378.4296265 314.65658396 378.45665439 298.81763645 378.494035 282.97860017 C378.53212531 266.70840444 378.55148115 250.43827615 378.55178314 234.16803485 C378.55236749 225.03622269 378.56084489 215.90457273 378.58978081 206.77280235 C378.61430417 198.99799054 378.62157103 191.22340012 378.60653328 183.44856008 C378.5993687 179.48366382 378.60020196 175.51920467 378.62294388 171.55435753 C378.6435887 167.92023992 378.64088332 164.28689395 378.62006903 160.65278421 C378.61494178 158.72487273 378.63431134 156.79694333 378.65473074 154.86913317 C378.58143759 147.25966711 377.47511136 141.29663519 373 135 C365.13996633 127.45216899 357.50025354 126.70574992 346.96524048 126.75949097 C345.13220275 126.75692769 345.13220275 126.75692769 343.26213396 126.75431263 C339.87793439 126.75159071 336.49396681 126.75783068 333.10979533 126.76786876 C329.45751503 126.77651352 325.80524176 126.77358237 322.1529541 126.77206421 C315.82769706 126.77101601 309.50248131 126.77728584 303.17723465 126.78853989 C294.0320195 126.8048007 284.8868243 126.81000349 275.74159627 126.81251587 C260.90372864 126.81689206 246.06588302 126.8301991 231.22802734 126.84912109 C216.81526805 126.86748186 202.40251473 126.8816374 187.98974609 126.89013672 C187.10119775 126.89066217 186.21264941 126.89118761 185.29717536 126.89172898 C180.83954597 126.89433908 176.38191654 126.89686649 171.92428708 126.89935279 C134.94950856 126.92008292 97.97475743 126.95585719 61 127 Z " fill="#6548AC" transform="translate(119,4)"/>
<path d="M0 0 C0.66 0 1.32 0 2 0 C5.28879659 6.55421612 8.57530772 13.10957311 11.8590641 19.66631603 C13.38461826 22.71225018 14.91089872 25.75781539 16.43896484 28.80249023 C18.20344108 32.31917939 19.965237 35.8372007 21.7265625 39.35546875 C22.26431305 40.42580856 22.8020636 41.49614838 23.35610962 42.59892273 C26.62291215 49.13205336 29.67727387 55.71015202 32.53611755 62.43331909 C33.77086014 65.071421 33.77086014 65.071421 35.9443512 66.2091217 C38.16053174 66.81031566 40.14143339 66.9062783 42.4375 66.9375 C44.29100737 67.08318678 46.14383551 67.2376469 47.99609375 67.3984375 C49.06843262 67.47803711 50.14077148 67.55763672 51.24560547 67.63964844 C58.33920613 68.32050125 65.36189603 69.52600294 72.39675903 70.64871216 C76.57477603 71.31281228 80.75630009 71.95396254 84.9375 72.59765625 C86.49481358 72.83856281 88.05210585 73.0796072 89.609375 73.32080078 C95.40562875 74.21790797 101.20273317 75.10946384 107 76 C102.7707585 81.04683531 98.35730185 85.79016664 93.6953125 90.4375 C93.01250214 91.12126709 92.32969177 91.80503418 91.62619019 92.50952148 C90.1903353 93.94605274 88.75323338 95.38133852 87.31494141 96.81542969 C85.13459685 98.99042669 82.95963129 101.17069918 80.78515625 103.3515625 C79.38052874 104.75552897 77.97559094 106.15918508 76.5703125 107.5625 C75.93046417 108.20437256 75.29061584 108.84624512 74.63137817 109.50756836 C69.67711594 114.43667062 64.51032454 119.08112101 59.13674927 123.54931641 C57.20455184 125.19375007 57.20455184 125.19375007 55 128 C55.22696987 130.81338691 55.22696987 130.81338691 56 134 C56.42456706 136.62348284 56.84772159 139.24716834 57.26953125 141.87109375 C57.65016995 144.23243388 58.03109223 146.59372815 58.41204834 148.95501709 C58.68016681 150.61713908 58.94810966 152.2792894 59.21588135 153.94146729 C61.00028167 165.00786331 62.81935506 176.0649949 64.88208008 187.08374023 C65.73952659 191.81099647 66.16838418 196.19457463 66 201 C60.73290365 199.48799442 56.33915443 197.0860202 51.625 194.375 C45.3292269 190.81343864 38.99714593 187.42593155 32.48754883 184.2734375 C28.18894009 182.1656643 24.00728596 179.90052133 19.83984375 177.54296875 C18.76234863 176.93880127 17.68485352 176.33463379 16.57470703 175.7121582 C14.42780727 174.50310113 12.28912619 173.27931308 10.15966797 172.03979492 C9.17498535 171.48783447 8.19030273 170.93587402 7.17578125 170.3671875 C6.29833252 169.86300293 5.42088379 169.35881836 4.5168457 168.83935547 C2.03144275 167.75364292 2.03144275 167.75364292 -0.41748047 168.64746094 C-1.26971191 169.09379883 -2.12194336 169.54013672 -3 170 C-4.51678345 170.74515869 -4.51678345 170.74515869 -6.06420898 171.50537109 C-7.76299194 172.38056396 -7.76299194 172.38056396 -9.49609375 173.2734375 C-10.11807648 173.5935228 -10.7400592 173.91360809 -11.38088989 174.24339294 C-13.40117974 175.28453728 -15.41946002 176.32950222 -17.4375 177.375 C-18.46954056 177.9082338 -18.46954056 177.9082338 -19.52243042 178.45223999 C-30.3269492 184.03668091 -41.0447846 189.76378087 -51.69140625 195.64453125 C-61.43916027 201 -61.43916027 201 -64 201 C-63.66115982 194.17645979 -63.01239085 187.5955877 -61.6953125 180.890625 C-61.42393219 179.4819855 -61.1537336 178.07311798 -60.88452148 176.6640625 C-60.74110321 175.91382813 -60.59768494 175.16359375 -60.44992065 174.390625 C-59.11486365 167.29688386 -57.8898114 160.18319 -56.6730957 153.06835938 C-56.34551099 151.16708341 -56.0127078 149.26670019 -55.67504883 147.3671875 C-55.18116195 144.5853134 -54.70404999 141.80101821 -54.23046875 139.015625 C-53.99942696 137.74383392 -53.99942696 137.74383392 -53.76371765 136.4463501 C-53.56779778 135.26296051 -53.56779778 135.26296051 -53.36791992 134.05566406 C-53.24817307 133.3666803 -53.12842621 132.67769653 -53.00505066 131.96783447 C-52.99602867 128.45269306 -54.66503858 126.37699 -56.93603516 123.82104492 C-57.71253418 123.04865479 -58.4890332 122.27626465 -59.2890625 121.48046875 C-60.14886719 120.62259766 -61.00867188 119.76472656 -61.89453125 118.88085938 C-62.79558594 117.99205078 -63.69664062 117.10324219 -64.625 116.1875 C-65.50285156 115.31029297 -66.38070312 114.43308594 -67.28515625 113.52929688 C-71.07559978 109.76419807 -74.87149998 106.05087863 -78.9296875 102.57421875 C-83.85874333 98.33747404 -88.41985039 93.73018408 -93.00292969 89.12744141 C-94.52163266 87.60328973 -96.04572512 86.08466956 -97.5703125 84.56640625 C-98.53677987 83.59927954 -99.50293779 82.63184347 -100.46875 81.6640625 C-101.77489258 80.35622803 -101.77489258 80.35622803 -103.10742188 79.02197266 C-105 77 -105 77 -105 76 C-104.04480469 75.87882812 -103.08960938 75.75765625 -102.10546875 75.6328125 C-100.81253906 75.46523437 -99.51960937 75.29765625 -98.1875 75.125 C-96.92292969 74.96257812 -95.65835938 74.80015625 -94.35546875 74.6328125 C-91.26478852 74.20877645 -88.21232914 73.67189388 -85.1484375 73.0859375 C-76.14283598 71.41659131 -67.03781313 70.35924313 -57.95825195 69.17724609 C-57.14509521 69.07105957 -56.33193848 68.96487305 -55.49414062 68.85546875 C-54.69323502 68.75094894 -53.89232941 68.64642914 -53.06715393 68.53874207 C-50.73781501 68.22602918 -48.41307352 67.88851696 -46.08764648 67.5480957 C-43.64937288 67.19604886 -41.35379101 66.97504652 -38.88305664 66.87963867 C-36.08664421 66.68336659 -34.42079304 66.42522129 -32 65 C-28.7737837 60.77281821 -26.70488088 56.13868439 -24.5625 51.3125 C-23.92412531 49.94775252 -23.2822415 48.5846413 -22.63696289 47.22314453 C-21.34031648 44.47357339 -20.06406504 41.71601088 -18.80566406 38.94873047 C-16.71536694 34.35766625 -14.5282907 29.81505819 -12.33496094 25.27246094 C-10.98553498 22.47459454 -9.65085602 19.67016731 -8.3203125 16.86328125 C-5.62875578 11.20048281 -2.84721397 5.5863059 0 0 Z " fill="#6D4AAD" transform="translate(303,163)"/>
<path d="M0 0 C11.49426483 9.76275698 20.38760655 23.18765343 22.8125 38.3125 C23.07990018 43.16820944 23.04551684 48.01321785 23.0078125 52.875 C23.00579834 54.10541016 23.00378418 55.33582031 23.00170898 56.60351562 C22.99129259 61.17321533 22.9633702 65.74286165 22.9375 70.3125 C22.89625 80.5425 22.855 90.7725 22.8125 101.3125 C-18.4375 101.3125 -59.6875 101.3125 -102.1875 101.3125 C-102.1875 23.26919912 -102.1875 23.26919912 -83.94921875 4.9375 C-60.26674892 -17.57257034 -26.23414533 -19.70583267 0 0 Z " fill="#C4B5FE" transform="translate(142.1875,68.6875)"/>
<path d="M0 0 C0.66 0 1.32 0 2 0 C5.00195477 5.90255737 7.99138874 11.81133046 10.97216797 17.72460938 C11.98784204 19.73583231 13.00638246 21.74561038 14.02783203 23.75390625 C15.49485671 26.6394825 16.95152248 29.53008388 18.40625 32.421875 C18.86559937 33.31992859 19.32494873 34.21798218 19.79821777 35.14324951 C20.21865356 35.98381897 20.63908936 36.82438843 21.07226562 37.69042969 C21.44532837 38.42767273 21.81839111 39.16491577 22.20275879 39.92449951 C23 42 23 42 23 46 C23.75498779 46.04970947 24.50997559 46.09941895 25.2878418 46.15063477 C33.49028457 46.73142113 41.63350109 47.61240849 49.78588867 48.67456055 C51.82724559 48.93941314 53.86958201 49.19552085 55.91210938 49.45117188 C62.39172895 50.278326 68.71059767 51.20417834 75 53 C71.71686452 56.43575691 68.28869728 59.41405705 64.55441284 62.34812927 C48.38637095 74.55454443 48.38637095 74.55454443 38.38000488 91.4085083 C37.23522509 101.78226546 40.61001446 112.11410634 43.77294922 121.87548828 C45.63704385 127.79305749 46.34737235 133.84025094 47 140 C42.01375278 138.51626373 37.67191424 136.39072546 33.1171875 133.9375 C32.38049835 133.54554443 31.6438092 133.15358887 30.88479614 132.74975586 C28.54585468 131.50417197 26.21036424 130.25227581 23.875 129 C21.53174392 127.74917212 19.18780649 126.49962854 16.84378052 125.25024414 C15.38961369 124.47453969 13.93603439 123.69773257 12.48312378 122.91967773 C10.65745364 121.9426345 8.82887935 120.97102279 7 120 C5.95996826 119.34837891 5.95996826 119.34837891 4.89892578 118.68359375 C1.14036535 117.33055065 -2.19492812 118.65103925 -5.72216797 120.17993164 C-6.63627441 120.66840576 -7.55038086 121.15687988 -8.4921875 121.66015625 C-9.52029541 122.20325439 -10.54840332 122.74635254 -11.60766602 123.3059082 C-12.68588623 123.8855835 -13.76410645 124.46525879 -14.875 125.0625 C-17.11015473 126.2457789 -19.34583269 127.42806996 -21.58203125 128.609375 C-22.67209473 129.18751953 -23.7621582 129.76566406 -24.88525391 130.36132812 C-29.08268362 132.56960123 -33.31377738 134.7049712 -37.5625 136.8125 C-38.22813965 137.1432251 -38.8937793 137.4739502 -39.57958984 137.81469727 C-41.05214441 138.54498043 -42.52590217 139.27283699 -44 140 C-43.63761355 132.55739497 -42.81320435 125.32665222 -41.51953125 117.99609375 C-41.38263885 117.21803375 -41.24574646 116.43997375 -41.10470581 115.63833618 C-40.53201632 112.41325531 -39.95109439 109.18983764 -39.35766602 105.96850586 C-38.92103424 103.58375165 -38.50051125 101.19658992 -38.08203125 98.80859375 C-37.94360306 98.08256454 -37.80517487 97.35653534 -37.66255188 96.60850525 C-36.97076109 92.59844002 -36.88153932 90.45755729 -39 87 C-40.49276551 85.22114875 -40.49276551 85.22114875 -42.25634766 83.51660156 C-42.91688141 82.85621887 -43.57741516 82.19583618 -44.25796509 81.51544189 C-44.96947723 80.81425232 -45.68098938 80.11306274 -46.4140625 79.390625 C-47.14370209 78.66381531 -47.87334167 77.93700562 -48.62509155 77.18817139 C-50.9537388 74.87070802 -53.28924826 72.5603005 -55.625 70.25 C-57.20618653 68.67884556 -58.78692125 67.10723629 -60.3671875 65.53515625 C-64.2395669 61.68481347 -68.11760171 57.84023883 -72 54 C-68.90914593 52.38548743 -66.33697477 51.56973538 -62.87890625 51.03515625 C-61.87102051 50.87813232 -60.86313477 50.7211084 -59.82470703 50.55932617 C-58.74817871 50.39537354 -57.67165039 50.2314209 -56.5625 50.0625 C-55.45245605 49.87469971 -54.34241211 49.68689941 -53.19873047 49.4934082 C-47.7838198 48.6012269 -42.55924425 47.90699773 -37.06640625 47.8828125 C-29.22322454 47.74980257 -29.22322454 47.74980257 -22 45 C-17.05104689 39.27295929 -14.64211409 31.96754017 -12.10693359 24.94042969 C-10.53870455 20.77462673 -8.56066217 16.87667949 -6.5 12.9375 C-5.88357823 11.71837574 -5.26887128 10.49838221 -4.65625 9.27734375 C-4.1096875 8.19582031 -3.563125 7.11429688 -3 6 C-1.99909019 4.00045517 -0.99878179 2.00060864 0 0 Z " fill="#96E9F2" transform="translate(303,197)"/>
<path d="M0 0 C0.98239108 -0.00551503 0.98239108 -0.00551503 1.98462844 -0.01114148 C4.18936544 -0.02219525 6.39405533 -0.02602501 8.59881592 -0.02983093 C10.17556407 -0.03609434 11.75231074 -0.04274103 13.32905579 -0.04974365 C17.62052052 -0.06716551 21.91197411 -0.07770879 26.20346546 -0.08594918 C28.88401547 -0.09109718 31.564562 -0.09717303 34.24510956 -0.10346031 C42.63004276 -0.12251632 51.01496714 -0.13674618 59.39991784 -0.14507228 C69.08226773 -0.15484504 78.76438903 -0.18116379 88.44665837 -0.22157317 C95.92783658 -0.25172571 103.40894923 -0.26654036 110.89018703 -0.26985329 C115.35952433 -0.27220491 119.82861754 -0.28117958 124.29788971 -0.30631447 C128.50370936 -0.32958501 132.70912405 -0.33383265 136.91499138 -0.32355309 C138.45731643 -0.32305735 139.99966133 -0.32938895 141.54192543 -0.34310913 C143.65091195 -0.36081866 145.75844363 -0.35372854 147.86743164 -0.34057617 C149.63614309 -0.3441587 149.63614309 -0.3441587 151.44058609 -0.34781361 C155.39362719 0.25478452 157.57986691 1.67797844 160.68768311 4.14717102 C162.26666364 7.30513209 162.50696481 10.75387738 161.68768311 14.14717102 C159.09885418 17.33799579 157.5960256 18.96653965 153.50954437 19.77917004 C152.30388069 19.78235398 151.09821701 19.78553793 149.85601807 19.78881836 C149.18148763 19.79732388 148.5069572 19.8058294 147.81198645 19.81459266 C145.55842726 19.83682577 143.30652517 19.82343867 141.05291748 19.81001282 C139.43468546 19.81842767 137.81646324 19.82895353 136.19825745 19.84143066 C131.80768816 19.86848892 127.41768686 19.86377573 123.027071 19.85173011 C119.36139444 19.84460027 115.69582303 19.85309694 112.03015471 19.86163551 C103.38318641 19.88159003 94.73649458 19.87601539 86.08953857 19.85395813 C77.16824512 19.83158779 68.24767501 19.84920038 59.32644987 19.88700742 C51.66598097 19.91823163 44.00573611 19.92616046 36.34521151 19.91505367 C31.77026385 19.90856337 27.19573376 19.91058418 22.62083435 19.93437767 C18.31952501 19.95560929 14.01923754 19.94767965 9.71799278 19.91728401 C8.13978988 19.91094961 6.56150785 19.91483448 4.9833622 19.92969513 C2.82751732 19.94835 0.67502524 19.93000157 -1.48065186 19.90234375 C-2.68631554 19.90138041 -3.89197922 19.90041708 -5.13417816 19.89942455 C-9.6685553 18.82615447 -10.7366601 16.97672589 -13.31231689 13.14717102 C-13.97258071 9.97790472 -14.00346236 8.23724971 -12.24981689 5.47138977 C-8.26523876 0.50252597 -6.16555531 0.02237402 0 0 Z " fill="#E1BDFD" transform="translate(28.31231689453125,184.8528289794922)"/>
<path d="M0 0 C4.95 0 9.9 0 15 0 C15 25.08 15 50.16 15 76 C10.71 76 6.42 76 2 76 C-1.1057472 72.88110678 -2.58482638 70.93600923 -4.5625 67.1875 C-5.6312789 65.36054163 -6.70029563 63.53372237 -7.76953125 61.70703125 C-8.29756348 60.76553223 -8.8255957 59.8240332 -9.36962891 58.85400391 C-11.9967408 54.2551812 -14.88565761 49.82829547 -17.75 45.375 C-18.74752291 43.801207 -19.74254852 42.22582667 -20.734375 40.6484375 C-21.35650879 39.66109619 -21.35650879 39.66109619 -21.99121094 38.65380859 C-23 37 -23 37 -24 35 C-24.33 48.86 -24.66 62.72 -25 77 C-29.95 77 -34.9 77 -40 77 C-40 51.92 -40 26.84 -40 1 C-35.71 1 -31.42 1 -27 1 C-24.03292814 3.98042202 -22.7424193 5.70685401 -20.9375 9.3125 C-19.96106114 11.04897955 -18.98315044 12.78463215 -18.00390625 14.51953125 C-17.51680176 15.42010254 -17.02969727 16.32067383 -16.52783203 17.24853516 C-14.00633218 21.78949126 -11.18117567 26.13149228 -8.375 30.5 C-7.38169997 32.07221434 -6.38942942 33.64507981 -5.3984375 35.21875 C-3.9590914 37.50073536 -2.49701543 39.75447686 -1 42 C-0.67 28.14 -0.34 14.28 0 0 Z " fill="#AC47B1" transform="translate(380,394)"/>
<path d="M0 0 C15.84 0 31.68 0 48 0 C48 4.95 48 9.9 48 15 C37.11 15 26.22 15 15 15 C15 19.95 15 24.9 15 30 C25.89 30 36.78 30 48 30 C48 34.95 48 39.9 48 45 C37.11 45 26.22 45 15 45 C15 49.95 15 54.9 15 60 C25.89 60 36.78 60 48 60 C48 64.95 48 69.9 48 75 C32.16 75 16.32 75 0 75 C0 50.25 0 25.5 0 0 Z " fill="#AB46B1" transform="translate(137,395)"/>
<path d="M0 0 C15.51 0 31.02 0 47 0 C47 4.95 47 9.9 47 15 C36.11 15 25.22 15 14 15 C14 19.95 14 24.9 14 30 C24.89 30 35.78 30 47 30 C47 34.95 47 39.9 47 45 C36.11 45 25.22 45 14 45 C14 49.95 14 54.9 14 60 C24.89 60 35.78 60 47 60 C47 64.95 47 69.9 47 75 C31.49 75 15.98 75 0 75 C0 50.25 0 25.5 0 0 Z " fill="#AB44B0" transform="translate(276,395)"/>
<path d="M0 0 C0.85429382 1.65658569 0.85429382 1.65658569 1.53393555 3.82958984 C1.92400032 5.04622818 1.92400032 5.04622818 2.32194519 6.28744507 C2.7252581 7.61082382 2.7252581 7.61082382 3.13671875 8.9609375 C3.42102249 9.86244537 3.70532623 10.76395325 3.99824524 11.69277954 C4.59804337 13.60264811 5.19197441 15.51436753 5.78051758 17.42773438 C6.68276106 20.35960069 7.60239912 23.28554461 8.52539062 26.2109375 C9.10519656 28.06478237 9.68400597 29.91893927 10.26171875 31.7734375 C10.53666672 32.65164154 10.81161469 33.52984558 11.09489441 34.43466187 C11.47077446 35.66075668 11.47077446 35.66075668 11.85424805 36.91162109 C12.07614304 37.63030365 12.29803802 38.34898621 12.5266571 39.08944702 C13 41 13 41 13 44 C13.66 44 14.32 44 15 44 C15.11859375 42.97648437 15.2371875 41.95296875 15.359375 40.8984375 C15.96815697 37.1937765 16.91243707 34.12128791 18.25 30.625 C20.52845335 24.46790787 22.4549049 18.27464766 24.21191406 11.94970703 C25.48570983 7.4483154 27.07553711 3.26607813 29 -1 C33.62 0.32 38.24 1.64 43 3 C42.2648233 6.67588351 41.44082819 9.96195639 40.29296875 13.5 C39.95330078 14.55316406 39.61363281 15.60632813 39.26367188 16.69140625 C38.90853516 17.78324219 38.55339844 18.87507813 38.1875 20 C35.75315403 27.51769883 33.35521674 35.04311968 31.04223633 42.59912109 C29.91633758 46.27299545 28.78001699 49.94357591 27.640625 53.61328125 C27.34566887 54.56350662 27.34566887 54.56350662 27.04475403 55.53292847 C26.44663523 57.4594935 25.84832256 59.38599825 25.25 61.3125 C24.83462043 62.65038597 24.41925577 63.98827657 24.00390625 65.32617188 C23.00274994 68.55082651 22.00139586 71.77541975 21 75 C16.38 75 11.76 75 7 75 C3.53315465 64.77930031 0.09156567 54.57336034 -2.86279297 44.19116211 C-4.32009291 39.14697849 -5.90671191 34.14876827 -7.53125 29.15625 C-7.75805954 28.45861542 -7.98486908 27.76098083 -8.21855164 27.04220581 C-9.37178522 23.5000063 -10.53158213 19.96008173 -11.69848633 16.42236328 C-12.12852297 15.10713068 -12.55845898 13.79186517 -12.98828125 12.4765625 C-13.37540283 11.30174316 -13.76252441 10.12692383 -14.16137695 8.91650391 C-15 6 -15 6 -15 3 C-13.06643218 2.30151736 -11.12797702 1.61655186 -9.1875 0.9375 C-8.10855469 0.55464844 -7.02960938 0.17179687 -5.91796875 -0.22265625 C-3 -1 -3 -1 0 0 Z " fill="#AA47B1" transform="translate(217,395)"/>
<path d="M0 0 C20.13 0 40.26 0 61 0 C61 4.95 61 9.9 61 15 C53.41 15 45.82 15 38 15 C38 34.8 38 54.6 38 75 C33.05 75 28.1 75 23 75 C23 55.2 23 35.4 23 15 C15.41 15 7.82 15 0 15 C0 10.05 0 5.1 0 0 Z " fill="#A747B1" transform="translate(411,395)"/>
<path d="M0 0 C24.75 0 49.5 0 75 0 C73.64147232 9.50969373 69.72504214 17.51666565 61.96484375 23.59375 C51.08785843 31.20577403 40.20032385 32.71674455 27.21484375 30.53125 C17.29254111 27.59130848 9.10482546 20.6375901 3.71484375 11.921875 C1.47881631 7.72231092 0.82259893 4.93559356 0 0 Z " fill="#F0C1FD" transform="translate(65,219)"/>
<path d="M0 0 C3.6815625 -0.0309375 3.6815625 -0.0309375 7.4375 -0.0625 C8.21150146 -0.071604 8.98550293 -0.08070801 9.78295898 -0.09008789 C11.52221717 -0.09724913 13.26145304 -0.05024702 15 0 C16 1 16 1 16.09765625 4.37890625 C16.09191424 5.77347492 16.07890228 7.16801597 16.0625 8.5625 C16.041875 11.016875 16.02125 13.47125 16 16 C10.72 16 5.44 16 0 16 C0 10.72 0 5.44 0 0 Z " fill="#8C5BB6" transform="translate(204,312)"/>
<path d="M0 0 C3.6815625 -0.0309375 3.6815625 -0.0309375 7.4375 -0.0625 C8.21150146 -0.071604 8.98550293 -0.08070801 9.78295898 -0.09008789 C11.52221717 -0.09724913 13.26145304 -0.05024702 15 0 C16 1 16 1 16.09765625 4.37890625 C16.09191424 5.77347492 16.07890228 7.16801597 16.0625 8.5625 C16.041875 11.016875 16.02125 13.47125 16 16 C10.72 16 5.44 16 0 16 C0 10.72 0 5.44 0 0 Z " fill="#8C5BB6" transform="translate(154,312)"/>
<path d="M0 0 C3.6815625 -0.0309375 3.6815625 -0.0309375 7.4375 -0.0625 C8.21150146 -0.071604 8.98550293 -0.08070801 9.78295898 -0.09008789 C11.52221717 -0.09724913 13.26145304 -0.05024702 15 0 C16 1 16 1 16.09765625 4.37890625 C16.09191424 5.77347492 16.07890228 7.16801597 16.0625 8.5625 C16.041875 11.016875 16.02125 13.47125 16 16 C10.72 16 5.44 16 0 16 C0 10.72 0 5.44 0 0 Z " fill="#845BB6" transform="translate(179,287)"/>
<path d="M0 0 C4.95 0 9.9 0 15 0 C15 5.28 15 10.56 15 16 C10.05 16 5.1 16 0 16 C0 10.72 0 5.44 0 0 Z " fill="#5F56B1" transform="translate(391,202)"/>
<path d="M0 0 C4.95 0 9.9 0 15 0 C15 5.28 15 10.56 15 16 C10.05 16 5.1 16 0 16 C0 10.72 0 5.44 0 0 Z " fill="#5657B0" transform="translate(366,177)"/>
<path d="M0 0 C4.95 0 9.9 0 15 0 C15 4.95 15 9.9 15 15 C10.05 15 5.1 15 0 15 C0 10.05 0 5.1 0 0 Z " fill="#4E4FAC" transform="translate(416,177)"/>
<path d="M0 0 C4.95 0 9.9 0 15 0 C15 4.95 15 9.9 15 15 C10.05 15 5.1 15 0 15 C0 10.05 0 5.1 0 0 Z " fill="#454FAC" transform="translate(391,152)"/>
<path d="M0 0 C4.62 0 9.24 0 14 0 C14 4.62 14 9.24 14 14 C9.38 14 4.76 14 0 14 C0 9.38 0 4.76 0 0 Z " fill="#8846AE" transform="translate(180,338)"/>
</svg>
